<svg width="235.000000" height="141.000000" viewBox="0 0 235 141" fill="none" xmlns="http://www.w3.org/2000/svg" xmlns:xlink="http://www.w3.org/1999/xlink">
	<desc>
			Created with Pixso.
	</desc>
	<defs>
		<clipPath id="clip69_3418">
			<rect id="Frame" width="235.000000" height="141.000000" fill="white" fill-opacity="0"/>
		</clipPath>
	</defs>
	<rect id="Frame" width="235.000000" height="141.000000" fill-opacity="1.000000"/>
	<g clip-path="url(#clip69_3418)">
		<path id="Vector" d="M177.285 57.1807L178.575 57.2252C179.458 57.2252 180.103 57.259 180.465 57.3141C180.837 57.3702 181.109 57.4814 181.29 57.6265C181.529 57.7937 181.686 58.0837 181.742 58.4735C181.788 58.8748 181.822 59.6542 181.822 60.8241L181.822 78.0128L164.505 56.4351L155.288 56.4351L155.288 57.1815L158.807 57.1815L159.608 57.7047L159.608 82.1804C159.608 82.2356 159.597 82.3022 159.587 82.3574C159.577 82.4126 159.565 82.458 159.565 82.4908C159.474 83.4501 159.281 84.1049 158.998 84.4634C158.716 84.8077 157.969 84.976 156.759 84.943L153.151 84.943L141.965 56L141.343 56L139.919 59.9104L131.991 81.6554C131.855 82.0568 131.707 82.425 131.594 82.7258C131.481 83.0372 131.357 83.3165 131.243 83.5391C130.881 84.241 130.452 84.6636 129.943 84.7971C129.547 84.8976 128.914 84.9536 128.032 84.9536L128.032 84.943L123.713 84.943L123.713 57.1807L128.033 57.1807L128.033 56.4342L119.392 56.4342L110.31 78.4142L100.602 56.4342L92.3113 56.4342L92.3113 57.1807L96.0555 57.1807L96.4512 57.9717L96.4512 82.2684C96.4512 83.3495 96.2588 84.0844 95.8749 84.4403C95.4901 84.8069 94.744 84.976 93.6473 84.9421L92.1432 84.9421L92.1432 85.6877L101.892 85.6877L101.892 84.9421L100.603 84.9857C98.9634 84.9857 97.9896 84.7179 97.6734 84.1725C97.3681 83.6368 97.2091 82.8254 97.2091 81.7435L97.2091 81.3894L97.2091 81.0433C97.177 80.9196 97.1618 80.792 97.1639 80.6643L97.1639 59.5981L108.35 85.1201L119.388 58.6737L119.388 84.943L115.113 84.943L115.113 85.6886L136.626 85.6886L136.626 84.943L135.246 84.9866C134.172 84.9866 133.413 84.8861 132.951 84.709C132.497 84.5195 132.261 84.1733 132.261 83.7169C132.261 83.5728 132.305 83.3379 132.394 83.0167C132.487 82.6937 132.622 82.2471 132.791 81.7008L134.838 76.1311L144.995 76.1311L148.421 84.943L143.977 84.943L143.977 85.6886L164.945 85.6886L164.945 84.9866C162.695 84.9866 161.35 84.7971 160.93 84.3958C160.524 84.0061 160.308 82.6368 160.308 80.2969L160.308 58.4948L182.228 85.9102L182.487 85.9102L182.487 60.8687C182.487 59.7546 182.51 59.0304 182.533 58.6737C182.556 58.3285 182.659 58.0383 182.805 57.8381C182.828 57.8381 182.861 57.8159 182.872 57.7937C182.891 57.7611 182.914 57.731 182.941 57.7039C183.087 57.5037 183.336 57.3702 183.698 57.3141C184.049 57.259 184.672 57.2029 185.564 57.1807L186.808 57.1807L186.808 56.4342L177.284 56.4342L177.284 57.1807L177.285 57.1807ZM139.917 75.3837L135.11 75.3837L139.782 62.4061L139.917 62.7513L144.723 75.3846L139.917 75.3846L139.917 75.3837ZM202 57.1807L202 56.4342L188.914 56.4342L188.914 57.1807L193.222 57.1807L193.222 84.943L188.914 84.943L188.914 85.6886L202 85.6886L202 84.943L197.679 84.943L197.679 57.1807L202 57.1807ZM89.3484 85.0311C89.156 85.0863 88.9871 85.1201 88.8389 85.1201C88.7486 85.1423 88.6583 85.1654 88.5679 85.1654L88.2617 85.1654C87.2897 85.1654 86.6448 84.5853 86.362 83.4501C86.0793 82.3138 85.8868 80.9979 85.7622 79.505C85.7396 79.3608 85.7062 79.2148 85.6945 79.0708C85.6827 78.9266 85.6719 78.77 85.6719 78.6259C85.5945 77.6116 85.4548 76.6029 85.2536 75.6052C85.0612 74.6372 84.7225 73.8445 84.2473 73.2333C83.6602 72.4423 82.8671 71.8417 81.8951 71.4297C80.9231 71.016 79.5085 70.6824 77.6648 70.4261C77.756 70.4261 77.8347 70.4146 77.9132 70.4039C77.9917 70.3901 78.0711 70.3827 78.1508 70.3816C80.2664 70.0925 82.1887 69.4572 83.942 68.499C85.6945 67.5292 86.5652 65.8137 86.5652 63.3634C86.5652 60.8793 85.6945 59.1407 83.9646 58.1727C82.2338 57.1923 80.3224 56.6353 78.2411 56.5232C78.0547 56.4916 77.8657 56.4767 77.6766 56.4786C77.495 56.4786 77.3035 56.4564 77.1337 56.4342L61.7736 56.4342L61.7736 57.1807L66.0933 57.1807L66.0933 84.943L58.8666 84.943L47.6917 56L47.0702 56L45.6447 59.9104L37.7162 81.6554C37.569 82.0568 37.4335 82.425 37.3206 82.7258C37.2077 83.0372 37.083 83.3165 36.9593 83.5391C36.6088 84.241 36.1788 84.6636 35.6702 84.7971C35.1725 84.9208 34.2782 84.976 33 84.943L33 85.6886L42.3422 85.6886L42.3422 84.943L40.9619 84.9866C39.8987 84.9866 39.1408 84.8861 38.6783 84.709C38.214 84.5195 37.9882 84.1733 37.9882 83.7169C37.9882 83.5728 38.0333 83.3379 38.1237 83.0167C38.2022 82.6937 38.3386 82.2471 38.5193 81.7008L40.5662 76.1311L50.7241 76.1311L54.1513 84.943L49.6952 84.943L49.6952 85.6886L75.0416 85.6886L75.0416 84.943L70.45 84.943L70.45 70.7714L72.1916 70.8168C73.7977 70.8168 75.1436 70.9155 76.2186 71.1282C77.598 71.3853 78.5483 71.8195 79.046 72.4209C79.9285 73.4895 80.5392 75.3837 80.8671 78.1018C80.924 78.448 80.98 78.8038 81.0026 79.1598C81.0369 79.5059 81.0812 79.8741 81.1381 80.2515C81.3757 82.3806 81.9186 83.8851 82.7668 84.7312C83.6033 85.5658 84.9718 86 86.8381 86C87.3132 86 87.754 85.9795 88.1497 85.9342C88.5453 85.8888 88.941 85.8007 89.3258 85.6895C89.5074 85.6895 89.6772 85.6566 89.8461 85.6005C90.0198 85.5402 90.1897 85.4695 90.3547 85.3888L90.0837 84.8086C89.7892 84.8976 89.5399 84.976 89.3484 85.0311ZM45.6447 75.3837L40.8381 75.3837L45.5092 62.4061L45.6447 62.7513L50.4513 75.3846L45.6447 75.3846L45.6447 75.3837ZM74.1021 69.9919C73.4797 70.0471 72.8465 70.0809 72.2241 70.0925C71.6135 70.104 71.0145 70.104 70.4491 70.0702L70.4491 57.1807L72.01 57.2252C73.7182 57.2252 75.1202 57.2803 76.2177 57.4031C76.8735 57.4814 77.4164 57.5704 77.8464 57.6816C78.9999 57.9939 79.9502 58.6283 80.6855 59.5981C80.9574 59.9434 81.1941 60.3668 81.3865 60.8687C81.5789 61.3589 81.7379 61.8597 81.8508 62.3616C81.8734 62.584 81.9068 62.8287 81.9412 63.0636C81.9637 63.286 81.9863 63.5084 81.9863 63.7211C81.9863 66.0486 81.1606 67.6537 79.5094 68.5007C78.4682 69.032 77.3619 69.4288 76.2177 69.6814C75.5275 69.8362 74.8257 69.9359 74.1021 69.9919Z" fill="#3F3F3F" fill-opacity="1.000000" fill-rule="evenodd"/>
	</g>
</svg>
