<svg width="235.000000" height="141.000000" viewBox="0 0 235 141" fill="none" xmlns="http://www.w3.org/2000/svg" xmlns:xlink="http://www.w3.org/1999/xlink">
	<desc>
			Created with Pixso.
	</desc>
	<defs>
		<clipPath id="clip69_3387">
			<rect id="Frame" width="235.000000" height="141.000000" fill="white" fill-opacity="0"/>
		</clipPath>
	</defs>
	<rect id="Frame" width="235.000000" height="141.000000" fill-opacity="1.000000"/>
	<g clip-path="url(#clip69_3387)">
		<path id="Vector" d="M159.096 81.3367L153.867 72.1622C156.183 71.0531 157.658 68.7144 157.66 66.1462C157.66 62.4546 154.656 59.451 150.964 59.451L139.78 59.451L139.78 81.3358L144.753 81.3358L144.753 72.8414L148.712 72.8414L153.554 81.3367L159.096 81.3367ZM144.672 68.6167L144.672 63.6863L150.032 63.6863L150.012 63.6947C151.643 63.7822 152.683 64.728 152.683 66.1564C152.683 67.5691 151.569 68.559 149.909 68.6179L144.672 68.6179L144.672 68.6167ZM119.468 81.3367L119.468 59.451L135.819 59.451L135.819 63.6268L124.576 63.6268L124.576 68.0052L134.434 68.0052L134.434 72.2742L124.576 72.2742L124.576 76.9427L136.376 76.9427L136.376 81.3367L119.468 81.3367ZM96.1456 81.3367L90.9162 72.1622C93.2322 71.0531 94.7072 68.714 94.7093 66.1462C94.7093 62.4546 91.7057 59.451 88.0142 59.451L76.829 59.451L76.829 81.3358L81.8032 81.3358L81.8032 72.8414L85.7631 72.8414L90.6038 81.3367L96.1456 81.3367ZM81.7202 68.6167L81.7202 63.6863L87.0815 63.6863L87.0604 63.6947C88.6921 63.7822 89.7326 64.728 89.7326 66.1564C89.7326 67.5691 88.6184 68.559 86.9576 68.6179L81.7202 68.6179L81.7202 68.6167ZM63.5742 81.8761C69.5582 81.8761 73.1319 78.4354 73.1319 72.6733L73.1319 59.467L68.0242 59.467L68.0242 72.3319C68.0242 75.4475 66.4022 77.2345 63.5746 77.2345L63.5717 77.2345C60.7441 77.2345 59.123 75.4479 59.123 72.3319L59.123 59.467L54.0132 59.467L54.0132 72.6742C54.0132 78.4359 57.5869 81.8765 63.5717 81.8765L63.5742 81.8765L63.5742 81.8761ZM47.3327 69.2155C50.2803 70.2206 51.717 72.7281 51.717 75.146C51.717 78.5525 48.9509 81.3257 45.5473 81.3367L33.4653 81.3367L33.4653 59.4493L44.5932 59.4493C47.4898 59.4763 49.8251 61.8306 49.8285 64.7275C49.8322 66.5551 48.8874 68.2537 47.3327 69.2146L47.3327 69.2155ZM38.4795 77.2531L44.0639 77.2531C45.8194 77.2531 46.7377 75.944 46.7377 74.6495C46.7377 73.6069 45.9086 72.139 44.0639 72.139L38.4795 72.139L38.4795 77.2531ZM42.5686 68.0566C43.8546 68.0566 44.8635 67.0634 44.8635 65.795C44.8635 64.5688 43.8108 63.5334 42.5678 63.5334L38.4795 63.5334L38.4795 68.0566L42.5686 68.0566Z" fill="#3F3F3F" fill-opacity="1.000000" fill-rule="nonzero"/>
		<path id="Vector" d="M112.341 69.2111C115.288 70.2155 116.725 72.7238 116.725 75.1416C116.725 78.5486 113.959 81.3206 110.555 81.3323L98.4735 81.3315L98.4735 59.4449L109.6 59.4446C112.497 59.4719 114.832 61.8267 114.836 64.7241C114.839 66.5515 113.895 68.2498 112.34 69.2103L112.341 69.2111ZM103.487 77.2487L109.071 77.2487C110.827 77.2487 111.745 75.9396 111.745 74.6451C111.745 73.603 110.915 72.1346 109.071 72.1346L103.487 72.1346L103.487 77.2487ZM107.575 68.0522C108.863 68.0522 109.872 67.059 109.872 65.7906C109.872 64.5645 108.819 63.5291 107.575 63.5291L103.487 63.5291L103.487 68.0522L107.575 68.0522Z" fill="#3F3F3F" fill-opacity="1.000000" fill-rule="nonzero"/>
		<path id="Vector" d="M180.741 81.3365L175.512 72.1621C177.828 71.053 179.303 68.7139 179.305 66.1461C179.305 62.4545 176.302 59.4509 172.61 59.4509L161.425 59.4509L161.425 81.3357L166.399 81.3357L166.399 72.8413L170.359 72.8413L175.2 81.3365L180.742 81.3365L180.741 81.3365ZM166.316 68.6166L166.316 63.6862L171.677 63.6862L171.656 63.6946C173.288 63.7821 174.329 64.7279 174.329 66.1562C174.329 67.569 173.215 68.5588 171.553 68.6178L166.316 68.6178L166.316 68.6166ZM188.009 81.3365L188.009 72.4185L179.327 59.4509L185.705 59.4509L190.703 66.9752L195.722 59.4509L202.1 59.4509L193.397 72.4185L193.397 81.3365L188.009 81.3365Z" fill="#3F3F3F" fill-opacity="1.000000" fill-rule="nonzero"/>
	</g>
</svg>
