<svg width="235.000000" height="141.000000" viewBox="0 0 235 141" fill="none" xmlns="http://www.w3.org/2000/svg" xmlns:xlink="http://www.w3.org/1999/xlink">
	<desc>
			Created with Pixso.
	</desc>
	<defs>
		<clipPath id="clip69_3372">
			<rect id="Frame" width="235.000000" height="141.000000" fill="white" fill-opacity="0"/>
		</clipPath>
	</defs>
	<rect id="Frame" width="235.000000" height="141.000000" fill-opacity="1.000000"/>
	<g clip-path="url(#clip69_3372)">
		<path id="path6" d="M66.3453 75.1328C66.3279 75.1669 66.294 75.2349 66.2773 75.2864C64.4383 78.7603 60.8275 81.127 56.7065 81.127C50.7291 81.127 45.825 76.12 45.825 69.9385C45.825 63.791 50.7291 58.75 56.7065 58.75C60.8449 58.75 64.4724 61.1681 66.294 64.6935C66.3453 64.7615 66.362 64.7955 66.4134 64.8976C66.4308 64.9149 62.9395 67.4351 62.9055 67.3844C62.8881 67.3164 62.8715 67.2649 62.8374 67.231C61.8321 64.7274 59.4489 63.0585 56.7065 63.11C53.045 63.1439 50.0307 66.1749 50.0307 69.9385C50.0307 73.736 53.045 76.8019 56.7065 76.8019C59.3634 76.8019 61.6794 75.1669 62.7346 72.8508C62.786 72.7655 62.8034 72.6974 62.8374 72.6294L66.3453 75.1328Z" fill="#3F3F3F" fill-opacity="1.000000" fill-rule="evenodd"/>
		<path id="path10" d="M70.8582 58.9551L75.0472 58.9551L75.0472 66.7716L86.049 66.7716L86.049 58.9551L90.2721 58.9551L90.2721 80.7015L86.049 80.7015L86.049 71.1481L75.0472 71.1481L75.0472 80.7015L70.8582 80.7015L70.8582 58.9551Z" fill="#3F3F3F" fill-opacity="1.000000" fill-rule="evenodd"/>
		<path id="path14" d="M149.399 80.7015L149.399 58.9551L164.606 58.9551L164.606 63.3481L153.639 63.3481L153.639 67.6907L163.771 67.6907L163.771 72.0332L153.639 72.0332L153.639 76.3756L166.155 76.3756L166.155 80.7015L149.399 80.7015Z" fill="#3F3F3F" fill-opacity="1.000000" fill-rule="evenodd"/>
		<path id="path18" d="M172.099 80.7015L172.099 58.9551L176.356 58.9551L176.356 76.3756L188.175 76.3756L188.175 80.7015L172.099 80.7015Z" fill="#3F3F3F" fill-opacity="1.000000" fill-rule="evenodd"/>
		<path id="path22" d="M126.545 80.7015L126.409 80.7015L122.287 80.7015L122.287 58.9551L122.594 58.9551L128.196 58.9551L137.511 72.0332L137.511 58.9551L141.735 58.9551L141.735 80.7015L138.363 80.7015L126.545 64.302L126.545 80.7015Z" fill="#3F3F3F" fill-opacity="1.000000" fill-rule="evenodd"/>
		<path id="path26" d="M106.262 63.3481L102.55 72.0332L110.145 72.0332L106.262 63.3481ZM100.642 76.3756L98.7014 80.7015L93.6605 80.7015L103.299 58.9551L109.191 58.9551L118.898 80.7015L113.857 80.7015L111.9 76.3756L100.642 76.3756Z" fill="#3F3F3F" fill-opacity="1.000000" fill-rule="evenodd"/>
	</g>
</svg>
