<svg width="235.000000" height="141.000000" viewBox="0 0 235 141" fill="none" xmlns="http://www.w3.org/2000/svg" xmlns:xlink="http://www.w3.org/1999/xlink">
	<desc>
			Created with Pixso.
	</desc>
	<defs>
		<clipPath id="clip69_3393">
			<rect id="Frame" width="235.000000" height="141.000000" fill="white" fill-opacity="0"/>
		</clipPath>
	</defs>
	<rect id="Frame" width="235.000000" height="141.000000" fill-opacity="1.000000"/>
	<g clip-path="url(#clip69_3393)">
		<path id="path2495" d="M147.816 74.3909C147.788 74.224 147.788 74.0787 148.62 73.8191C149.448 73.5626 151.463 72.8796 152.687 72.2028C153.911 71.5198 154.115 71.424 154.402 71.6156C154.689 71.8041 154.606 72.2677 154.606 72.5953L154.606 75.9146C155.054 75.179 156.525 72.7313 157.693 72.0112C158.611 71.4425 158.936 71.3961 159.505 71.3838C160.188 71.3715 161.801 71.7917 161.872 73.4946C161.927 74.8267 160.945 75.3613 160.32 75.2778C159.82 75.2068 159.461 74.7463 159.165 74.2827C158.865 73.813 158.389 73.5348 157.913 73.6956C157.437 73.8593 154.77 75.59 154.618 78.05C154.51 79.8611 154.618 85.5074 154.618 85.5074C154.618 86.3635 154.946 86.6942 155.329 86.9229C155.709 87.1547 157.109 87.167 157.502 87.2227C157.901 87.2783 157.885 87.371 157.885 87.4946C157.885 87.6151 157.885 87.6738 157.533 87.6738L148.156 87.6738C147.856 87.6738 147.736 87.6151 147.736 87.439C147.736 87.1948 148.128 87.2382 148.428 87.1948C148.728 87.1547 150.313 87.2844 150.768 86.4871C151.101 85.9648 151.061 85.1241 151.061 85.1241L151.015 75.2068C151.015 74.4064 150.777 74.2889 150.557 74.1622C150.335 74.0355 149.967 73.9675 149.191 74.2302C148.459 74.4712 147.955 74.6968 147.816 74.3909Z" fill="#3F3F3F" fill-opacity="1.000000" fill-rule="nonzero"/>
		<path id="path2497" d="M115.024 74.3943C114.897 74.1501 115.132 73.9926 115.827 73.8102C116.603 73.6031 118.303 73.087 119.65 72.3236C120.997 71.5634 121.229 71.483 121.514 71.5758C121.801 71.6715 121.773 72.1753 121.773 72.5833L121.773 85.415C121.773 86.1351 121.869 86.4349 122.193 86.7347C122.521 87.0344 123.337 87.2107 124.397 87.2107C124.876 87.2107 125.024 87.2662 125.024 87.4702C125.024 87.6742 124.876 87.6742 124.684 87.6742L115.379 87.6742C115.092 87.6742 115.024 87.5505 115.024 87.4301C115.024 87.2786 115.15 87.1829 115.583 87.1829C115.948 87.1829 117.632 87.3096 118.015 86.4349C118.163 86.1012 118.235 85.6345 118.235 85.1987L118.235 75.0186C118.235 74.246 117.635 73.903 116.943 74.0698C116.133 74.2552 115.19 74.7126 115.024 74.3943Z" fill="#3F3F3F" fill-opacity="1.000000" fill-rule="nonzero"/>
		<path id="path2499" d="M119.767 65.5183C121.031 65.5183 122.058 64.4922 122.058 63.2313C122.058 61.9673 121.031 60.9443 119.767 60.9443C118.507 60.9443 117.484 61.9673 117.484 63.2313C117.484 64.4922 118.507 65.5183 119.767 65.5183Z" fill="#3F3F3F" fill-opacity="1.000000" fill-rule="nonzero"/>
		<path id="path2501" d="M130.952 80.0714C131.412 84.2344 133.891 87.4733 136.963 86.9293C140.041 86.3854 141.583 83.4463 141.212 78.7395C140.832 73.9523 138.465 71.5634 135.279 71.8507C131.984 72.1505 130.488 75.9055 130.952 80.0714ZM133.999 71.1183C137.964 70.3766 143.604 71.2511 144.887 77.4569C146.166 83.6626 141.895 86.9664 138.19 87.7729C134.568 88.558 128.418 87.9987 127.305 81.3231C126.304 75.3306 130.652 71.7426 133.999 71.1183Z" fill="#3F3F3F" fill-opacity="1.000000" fill-rule="nonzero"/>
		<path id="path2503" d="M87.0539 86.6697L89.3533 86.6697C97.9078 86.6697 100.204 85.8755 103.214 81.8763C106.224 77.8772 106.583 72.135 106.583 70.1942C106.583 68.2534 106.067 63.3827 103.057 59.2631C100.043 55.1434 95.0151 54.0741 90.6173 54.0741L87.0354 54.0741C86.1855 54.0741 86.1422 54.4512 86.1422 55.0446L86.1422 85.9156C86.1422 86.5894 86.3802 86.6697 87.0539 86.6697ZM73.125 87.3928C73.125 87.0807 73.5299 87.0282 73.9069 87.0159C78.2614 86.8922 79.0742 86.7407 79.5718 86.2246C79.8438 85.9403 80.2424 85.7085 80.2424 83.6904L80.2424 55.9253C80.2424 53.4313 77.2137 53.8269 75.0751 53.6074C74.3241 53.5333 74.2623 53.4313 74.2623 53.2119C74.2623 52.9955 74.4045 52.8905 74.797 52.875L92.3418 52.875C111.633 52.875 112.619 66.9769 112.619 70.7382C112.619 78.8198 107.275 87.7081 96.106 87.7081L73.6875 87.7081C73.4124 87.7081 73.125 87.671 73.125 87.3928Z" fill="#3F3F3F" fill-opacity="1.000000" fill-rule="nonzero"/>
	</g>
</svg>
