<svg width="235.000000" height="141.000000" viewBox="0 0 235 141" fill="none" xmlns="http://www.w3.org/2000/svg" xmlns:xlink="http://www.w3.org/1999/xlink">
	<desc>
			Created with Pixso.
	</desc>
	<defs>
		<clipPath id="clip69_3402">
			<rect id="Frame" width="235.000000" height="141.000000" fill="white" fill-opacity="0"/>
		</clipPath>
	</defs>
	<rect id="Frame" width="235.000000" height="141.000000" fill-opacity="1.000000"/>
	<g clip-path="url(#clip69_3402)">
		<path id="path10" d="M66.5798 56.8574C72.6299 56.8574 78.6788 56.8627 84.729 56.8547C84.7355 58.5083 84.742 60.1619 84.7264 61.8168C80.4539 61.8154 76.1801 61.8129 71.9064 61.8181C71.909 63.8937 71.9037 65.9706 71.909 68.0461C75.6505 68.0382 79.392 68.0448 83.1321 68.0435C83.153 69.6918 83.1283 71.3401 83.1452 72.9884C79.3998 72.9844 75.6557 72.9923 71.9116 72.9844C71.9025 76.8948 71.9064 80.8052 71.909 84.7156C70.1352 84.6957 68.3614 84.6957 66.5876 84.7142C66.568 75.4291 66.585 66.1426 66.5798 56.8574Z" fill="#3F3F3F" fill-opacity="1.000000" fill-rule="nonzero"/>
		<path id="path12" d="M88.2583 84.7155C88.2517 75.4263 88.2505 66.1372 88.2596 56.848C94.5114 56.8679 100.765 56.8573 107.018 56.8533C107.019 58.5082 107.011 60.1631 107.022 61.8167C102.507 61.8167 97.9914 61.8087 93.4768 61.822C93.4911 63.7639 93.4781 65.7073 93.4833 67.6505C97.6296 67.6399 101.774 67.6466 105.921 67.6466C105.905 69.2935 105.923 70.9418 105.909 72.5887C101.768 72.5928 97.6257 72.5953 93.4846 72.5862C93.4742 74.97 93.4951 77.3538 93.4742 79.7362C98.1931 79.7521 102.912 79.7389 107.632 79.7428C107.644 81.3964 107.644 83.0499 107.632 84.7048C101.175 84.7102 94.7158 84.6876 88.2583 84.7155Z" fill="#3F3F3F" fill-opacity="1.000000" fill-rule="nonzero"/>
		<path id="path14" d="M111.637 56.848C113.516 56.8625 115.395 56.8666 117.275 56.848C120.665 63.3208 124.053 69.7936 127.45 76.2623C127.462 69.7949 127.46 63.3274 127.45 56.8612C129.107 56.8521 130.763 56.8639 132.42 56.8546C132.428 66.1398 132.427 75.4249 132.421 84.7102C130.649 84.6969 128.876 84.7048 127.105 84.7048C123.628 78.076 120.143 71.451 116.647 64.8315C116.649 71.459 116.65 78.0852 116.646 84.7128C114.976 84.6982 113.305 84.6917 111.634 84.7168C111.646 75.4276 111.641 66.1372 111.637 56.848Z" fill="#3F3F3F" fill-opacity="1.000000" fill-rule="nonzero"/>
		<path id="path16" d="M137.508 56.8534C141.378 56.8654 145.249 56.8534 149.119 56.86C151.242 56.8944 153.415 57.5029 155.051 58.9276C156.765 60.2928 157.765 62.3512 158.391 64.4268C158.92 66.3171 159.112 68.2882 159.145 70.2487C159.068 73.2767 158.648 76.3776 157.272 79.1025C156.411 80.9904 154.975 82.6188 153.177 83.6228C151.858 84.3517 150.353 84.6586 148.864 84.6982C145.082 84.7168 141.299 84.6837 137.517 84.7155C137.491 75.4277 137.509 66.1399 137.508 56.8534ZM142.783 61.7083C142.768 67.7551 142.775 73.8019 142.779 79.8486C144.461 79.8407 146.143 79.8486 147.825 79.8447C148.514 79.8262 149.217 79.7389 149.852 79.4558C151.082 78.9399 151.955 77.822 152.534 76.6407C153.511 74.4872 153.725 72.061 153.661 69.7183C153.602 67.4733 153.267 65.0697 151.81 63.2865C150.934 62.1832 149.485 61.8168 148.155 61.7281C146.364 61.6951 144.573 61.7347 142.783 61.7083Z" fill="#3F3F3F" fill-opacity="1.000000" fill-rule="nonzero"/>
		<path id="path18" d="M162.704 84.722C162.685 75.4303 162.687 66.1384 162.703 56.8467C164.474 56.8732 166.247 56.8533 168.018 56.8546C168.026 66.1371 168.03 75.421 168.017 84.7048C166.245 84.7128 164.474 84.6783 162.704 84.722Z" fill="#3F3F3F" fill-opacity="1.000000" fill-rule="nonzero"/>
	</g>
</svg>
