<svg width="235.000000" height="141.000000" viewBox="0 0 235 141" fill="none" xmlns="http://www.w3.org/2000/svg" xmlns:xlink="http://www.w3.org/1999/xlink">
	<desc>
			Created with Pixso.
	</desc>
	<defs>
		<clipPath id="clip69_3409">
			<rect id="Frame" width="235.000000" height="141.000000" fill="white" fill-opacity="0"/>
		</clipPath>
	</defs>
	<rect id="Frame" width="235.000000" height="141.000000" fill-opacity="1.000000"/>
	<g clip-path="url(#clip69_3409)">
		<path id="Vector" d="M171.243 56.9344L184.475 56.9344L184.475 59.0511C184.091 58.9219 183.688 58.8553 183.283 58.8539L175.676 58.8539L175.676 68.7456L183.075 68.7456C183.607 68.7456 184.08 68.6862 184.475 68.5875L184.475 70.694C184.139 70.6165 183.677 70.5765 183.106 70.5765L175.676 70.5765L175.676 80.804L183.056 80.804C183.459 80.804 183.943 80.7445 184.475 80.6168L184.475 82.8916L171.263 82.8916C171.362 82.5145 171.421 82.11 171.421 81.6654L171.421 58.1904C171.421 57.6763 171.362 57.2506 171.243 56.9344ZM168.179 63.671L164.356 63.6412C164.168 61.4855 162.937 59.3977 160.228 59.012C154.425 58.4877 152.788 64.8878 152.936 69.5664C153.084 74.0768 153.804 81.0114 159.793 81.0114C162.306 81.0114 164.719 78.4197 164.642 76.2327L168.178 76.2043C167.922 80.714 162.768 83.3253 160.315 83.4144C151.932 83.7017 148.423 78.0919 148.247 70.09C148.089 62.8392 151.044 56.4 159.33 56.4C166.426 56.4994 167.794 60.7131 168.179 63.671ZM108.553 79.9418L111.085 77.8157C112.406 80.0027 113.49 81.0012 116.11 81.0012C118.77 81.0012 121.008 79.3783 121.008 76.5104C121.008 75.0956 120.435 73.9384 119.302 73.0688C118.79 72.6621 117.49 71.9601 115.441 70.9812C112.376 69.507 109.391 67.5883 109.391 63.7305C109.391 58.864 113.509 56.7177 117.854 56.5588C120.426 56.4602 123.617 57.8851 124.909 59.4869L122.337 61.4753C121.878 60.6161 121.196 59.8976 120.364 59.3961C119.531 58.8947 118.579 58.6288 117.608 58.627C114.327 58.627 111.726 62.4448 114.445 65.0763C115.135 65.7493 116.544 66.5796 118.691 67.5693C122.121 69.1821 125.047 71.111 125.047 75.3741C125.047 76.8468 124.663 78.2224 123.904 79.4784C122.376 82.0106 119.825 83.2767 116.259 83.2767C112.159 83.276 111.351 82.3369 108.553 79.9418ZM72.4737 56.9344L85.696 56.9344L85.696 59.0511C85.3116 58.9218 84.9089 58.8551 84.5035 58.8539L76.8975 58.8539L76.8975 68.7456L84.2962 68.7456C84.8285 68.7456 85.3016 68.6862 85.696 68.5875L85.696 70.694C85.3608 70.6165 84.8979 70.5765 84.3359 70.5765L76.8975 70.5765L76.8975 80.804L84.2767 80.804C84.6805 80.804 85.1636 80.7445 85.6952 80.6168L85.6952 82.8916L72.4932 82.8916C72.582 82.5145 72.6412 82.11 72.6412 81.6654L72.6412 58.1904C72.6412 57.6763 72.582 57.2506 72.4737 56.9344ZM49.35 56.9344L54.158 56.9344L54.158 57.1716C54.158 57.3899 54.2274 57.6763 54.3451 58.0425L61.1234 78.5284L68.0787 57.9532C68.1871 57.6067 68.2463 57.2709 68.2463 56.9344L70.5806 56.9344C70.3445 57.35 70.1668 57.7162 70.0584 58.0425L62.1172 81.8329C62.0385 82.0592 61.9692 82.4166 61.91 82.8909L57.9686 82.8909C57.9093 82.5315 57.8204 82.1776 57.7029 81.8329L49.922 58.2302C49.8332 58.0127 49.6461 57.5675 49.3601 56.9344L49.35 56.9344ZM100.415 70.467C103.567 69.8441 105.981 67.42 105.981 63.9581C105.981 59.4174 102.199 56.9344 97.9613 56.9344L90.2173 56.9344C90.3256 57.3303 90.3848 57.7458 90.3848 58.1809L90.3848 81.6444C90.3848 82.1483 90.3256 82.5732 90.2173 82.8909L94.8281 82.8909C94.7159 82.485 94.6598 82.0656 94.6613 81.6444L94.6613 70.8623L96.139 71.0211L103.864 82.8909L108.504 82.8909L100.415 70.467ZM99.6167 68.4882C98.7796 69.082 97.7742 69.3787 96.6222 69.3787L94.6512 69.3787L94.6512 58.8235L96.4142 58.8235C97.9223 58.8235 99.0938 59.1998 99.9316 59.951C101.075 60.9901 101.656 62.3948 101.656 64.1554C101.656 66.0546 100.976 67.499 99.6167 68.4882ZM147.479 81.8126L138.868 57.7952C138.772 57.5176 138.716 57.2279 138.701 56.9344L134.977 56.9344C134.977 57.2412 134.928 57.5675 134.809 57.8938L126.465 81.8126C126.357 82.1586 126.179 82.5138 125.943 82.8901L128.346 82.8901C128.332 82.525 128.382 82.1602 128.495 81.8126L130.966 74.7592L140.474 74.7592L142.917 81.8126C143.046 82.1976 143.105 82.553 143.105 82.8901L148.09 82.8901C147.805 82.4856 147.597 82.1187 147.479 81.8126ZM131.616 72.8506L135.636 61.1287L139.764 72.8506L131.616 72.8506Z" fill="#3F3F3F" fill-opacity="1.000000" fill-rule="evenodd"/>
	</g>
</svg>
