<svg width="21.800049" height="20.589600" viewBox="0 0 21.8 20.5896" fill="none" xmlns="http://www.w3.org/2000/svg" xmlns:xlink="http://www.w3.org/1999/xlink">
	<desc>
			Created with Pixso.
	</desc>
	<defs/>
	<path id="Vector" d="M10.9 4.1001C11.8265 3.06201 13.246 2.3999 14.725 2.3999C17.343 2.3999 19.4 4.36987 19.4 6.89575C19.4 9.97754 16.51 12.5034 12.1325 16.3208L10.9 17.3999L9.66754 16.3208C5.29004 12.5034 2.40002 9.97754 2.40002 6.89575C2.40002 4.36987 4.45703 2.3999 7.07501 2.3999C8.55402 2.3999 9.97351 3.06201 10.9 4.1001Z" fill="#FFFFFF" fill-opacity="0" fill-rule="nonzero"/>
	<path id="Vector" d="M10.9 1.04199Q11.2461 0.84082 11.6196 0.672607Q12.4983 0.276611 13.4182 0.11377Q14.0615 0 14.725 0Q15.6492 0 16.5191 0.217285Q16.9929 0.335693 17.4504 0.518555Q18.1885 0.813477 18.8275 1.25244Q19.2935 1.57275 19.7068 1.96973Q20.2457 2.4873 20.6519 3.09375Q20.9927 3.60278 21.2402 4.17407Q21.4737 4.71362 21.6099 5.27661Q21.8 6.06323 21.8 6.89575Q21.8 7.13477 21.7844 7.37256Q21.6923 8.77588 21.0563 10.1436Q20.4384 11.4727 19.2366 12.8867Q18.2903 14 16.7464 15.4312Q15.8267 16.2837 13.7134 18.1267L10.9 20.5896L8.09015 18.1296Q5.97333 16.2837 5.05365 15.4312Q3.5097 14 2.56348 12.8867Q1.36169 11.4729 0.743713 10.1436Q0.107788 8.77588 0.015625 7.37256Q0 7.13477 0 6.89575Q0 6.06323 0.190186 5.27686Q0.326294 4.71362 0.559875 4.17407Q0.807312 3.60278 1.14813 3.09375Q1.55438 2.4873 2.09326 1.96973Q2.50659 1.57275 2.9726 1.25244Q3.61157 0.813477 4.34961 0.518555Q4.80719 0.335693 5.28088 0.217285Q6.15082 0 7.07501 0Q7.73859 0 8.3819 0.11377Q9.30176 0.276611 10.1804 0.672607Q10.554 0.84082 10.9 1.04199ZM10.0789 3.36743C9.22632 2.76074 8.16687 2.3999 7.07501 2.3999C4.45703 2.3999 2.40002 4.36987 2.40002 6.89575C2.40002 9.97754 5.29004 12.5034 9.66754 16.3208L10.9 17.3999L12.1325 16.3208C16.51 12.5034 19.4 9.97754 19.4 6.89575C19.4 4.36987 17.343 2.3999 14.725 2.3999C13.6332 2.3999 12.5737 2.76074 11.7211 3.36743C11.4188 3.58252 11.1425 3.82837 10.9 4.1001C10.6575 3.82837 10.3812 3.58252 10.0789 3.36743Z" fill="#FFFFFF" fill-opacity="1.000000" fill-rule="evenodd"/>
</svg>
