<svg width="94.000000" height="44.000000" viewBox="0 0 94 44" fill="none" xmlns="http://www.w3.org/2000/svg" xmlns:xlink="http://www.w3.org/1999/xlink">
	<desc>
			Created with Pixso.
	</desc>
	<defs/>
	<rect id="Rectangle" x="1.500000" y="10.500000" width="82.000000" height="32.000000" fill="#000000" fill-opacity="0"/>
	<rect id="Rectangle" x="1.500000" y="10.500000" width="82.000000" height="32.000000" stroke="#FFFFFF" stroke-opacity="1.000000" stroke-width="3.000000"/>
	<path id="crisp" d="M20.1054 35.26C18.4254 35.26 17.2321 34.7933 16.5254 33.86C15.8321 32.9133 15.4854 31.58 15.4854 29.86L15.4854 24.08C15.4854 22.3067 15.8321 20.96 16.5254 20.04C17.2187 19.12 18.4121 18.66 20.1054 18.66C21.6921 18.66 22.8187 19.06 23.4854 19.86C24.1521 20.66 24.4854 21.8133 24.4854 23.32L24.4854 24.68L21.6454 24.68L21.6454 23.28C21.6454 22.7067 21.6187 22.26 21.5654 21.94C21.5121 21.6067 21.3721 21.34 21.1454 21.14C20.9321 20.9267 20.5921 20.82 20.1254 20.82C19.6454 20.82 19.2854 20.9333 19.0454 21.16C18.8054 21.3733 18.6454 21.6667 18.5654 22.04C18.4987 22.4 18.4654 22.8733 18.4654 23.46L18.4654 30.48C18.4654 31.4 18.5854 32.0667 18.8254 32.48C19.0654 32.88 19.4987 33.08 20.1254 33.08C20.5787 33.08 20.9121 32.9733 21.1254 32.76C21.3521 32.5467 21.4921 32.2667 21.5454 31.92C21.6121 31.56 21.6454 31.0867 21.6454 30.5L21.6454 29.04L24.4854 29.04L24.4854 30.34C24.4854 31.9 24.1587 33.1133 23.5054 33.98C22.8521 34.8333 21.7187 35.26 20.1054 35.26ZM28.5462 18.84L32.4462 18.84C34.1528 18.84 35.4262 19.1667 36.2662 19.82C37.1062 20.46 37.5262 21.5667 37.5262 23.14C37.5262 24.1667 37.3728 25.0067 37.0662 25.66C36.7728 26.3 36.2595 26.7667 35.5262 27.06L37.7862 35.04L34.8262 35.04L32.8862 27.62L31.4862 27.62L31.4862 35.04L28.5462 35.04L28.5462 18.84ZM32.4262 25.78C33.2662 25.78 33.8595 25.5867 34.2062 25.2C34.5662 24.8133 34.7462 24.18 34.7462 23.3C34.7462 22.4467 34.5862 21.8267 34.2662 21.44C33.9595 21.0533 33.3995 20.86 32.5862 20.86L31.4862 20.86L31.4862 25.78L32.4262 25.78ZM41.8371 18.84L44.7571 18.84L44.7571 35.04L41.8371 35.04L41.8371 18.84ZM53.3449 35.26C51.8783 35.26 50.7783 34.8467 50.0449 34.02C49.3249 33.1933 48.9316 31.96 48.8649 30.32L51.4049 29.82C51.4449 30.8467 51.6049 31.6333 51.8849 32.18C52.1783 32.7133 52.6316 32.98 53.2449 32.98C53.6983 32.98 54.0316 32.8467 54.2449 32.58C54.4716 32.3 54.5849 31.9267 54.5849 31.46C54.5849 30.82 54.4383 30.28 54.1449 29.84C53.8649 29.3867 53.4183 28.8933 52.8049 28.36L50.7649 26.58C50.1383 26.0467 49.6649 25.4733 49.3449 24.86C49.0383 24.2467 48.8849 23.5133 48.8849 22.66C48.8849 21.3933 49.2516 20.4133 49.9849 19.72C50.7316 19.0133 51.7583 18.66 53.0649 18.66C54.4649 18.66 55.4649 19.06 56.0649 19.86C56.6783 20.6467 57.0316 21.7133 57.1249 23.06L54.5849 23.5C54.5449 22.62 54.4183 21.96 54.2049 21.52C54.0049 21.0667 53.6049 20.84 53.0049 20.84C52.5783 20.84 52.2449 20.9867 52.0049 21.28C51.7649 21.56 51.6449 21.92 51.6449 22.36C51.6449 22.88 51.7449 23.32 51.9449 23.68C52.1583 24.0267 52.4983 24.4 52.9649 24.8L54.9849 26.58C55.7449 27.2333 56.3383 27.9333 56.7649 28.68C57.1916 29.4267 57.4049 30.2933 57.4049 31.28C57.4049 32.0533 57.2316 32.74 56.8849 33.34C56.5516 33.94 56.0783 34.4133 55.4649 34.76C54.8516 35.0933 54.1449 35.26 53.3449 35.26ZM61.1477 18.84L65.9077 18.84C68.6677 18.84 70.0477 20.3733 70.0477 23.44C70.0477 26.3733 68.6011 27.84 65.7077 27.84L64.0877 27.84L64.0877 35.04L61.1477 35.04L61.1477 18.84ZM65.2277 25.76C66.0277 25.76 66.5677 25.5933 66.8477 25.26C67.1277 24.9133 67.2677 24.3 67.2677 23.42C67.2677 22.78 67.2211 22.2933 67.1277 21.96C67.0344 21.6133 66.8411 21.3533 66.5477 21.18C66.2677 21.0067 65.8277 20.92 65.2277 20.92L64.0877 20.92L64.0877 25.76L65.2277 25.76Z" fill="#FFFFFF" fill-opacity="1.000000" fill-rule="evenodd"/>
</svg>
